<?xml version="1.0" encoding="UTF-8" standalone="no"?><!DOCTYPE svg PUBLIC "-//W3C//DTD SVG 1.1//EN" "http://www.w3.org/Graphics/SVG/1.1/DTD/svg11.dtd"><svg width="100%" height="100%" viewBox="0 0 164 48" version="1.1" xmlns="http://www.w3.org/2000/svg" xmlns:xlink="http://www.w3.org/1999/xlink" xml:space="preserve" xmlns:serif="http://www.serif.com/" style="fill-rule:evenodd;clip-rule:evenodd;stroke-linecap:round;stroke-linejoin:round;stroke-miterlimit:1.5;"><path d="M163.357,12c0,-6.623 -5.377,-12 -12,-12l-139.357,0c-6.623,0 -12,5.377 -12,12l0,24c0,6.623 5.377,12 12,12l139.357,0c6.623,0 12,-5.377 12,-12l0,-24Z" style="fill:#fff1e0;"/><g><ellipse cx="30.419" cy="24.955" rx="17.387" ry="16.278" style="fill:#282828;"/><path d="M30.363,20.302c8.943,0 16.205,-4.217 16.205,4.726c0,8.944 -7.262,16.205 -16.205,16.205c-8.944,0 -16.205,-7.261 -16.205,-16.205c0,-8.943 7.261,-4.726 16.205,-4.726Z" style="fill:#282828;"/><path d="M13.72,25.981c1.599,-0.507 3.445,0.811 4.122,2.943c0.676,2.131 -0.073,4.273 -1.671,4.78c-1.599,0.507 -3.446,-0.811 -4.122,-2.943c-0.676,-2.131 0.073,-4.273 1.671,-4.78Z" style="fill:#282828;"/><path d="M47.23,26.093c-1.598,-0.507 -3.445,0.812 -4.121,2.943c-0.676,2.131 0.072,4.273 1.671,4.78c1.598,0.508 3.445,-0.811 4.121,-2.942c0.676,-2.131 -0.072,-4.273 -1.671,-4.781Z" style="fill:#282828;"/><path d="M25.388,29.08c0,1.578 -1.279,2.858 -2.858,2.858c-1.578,0 -2.858,-1.28 -2.858,-2.858c0,-1.579 1.28,-2.859 2.858,-2.859c1.579,0 2.858,1.28 2.858,2.859" style="fill:#808080;fill-rule:nonzero;"/><path d="M24.961,29.158c0,1.349 -1.093,2.442 -2.442,2.442c-1.349,0 -2.442,-1.093 -2.442,-2.442c0,-1.348 1.093,-2.442 2.442,-2.442c1.349,0 2.442,1.094 2.442,2.442" style="fill:#484848;fill-rule:nonzero;"/><path d="M20.46,27.842c-0.609,2.578 1.819,3.376 4.107,2.433c-0.083,-2.309 -1.933,-2.537 -4.107,-2.433Z"/><circle cx="21.315" cy="28.866" r="0.293" style="fill:#fff;"/><path d="M35.787,29.08c0,1.578 1.28,2.858 2.858,2.858c1.579,0 2.859,-1.28 2.859,-2.858c0,-1.579 -1.28,-2.859 -2.859,-2.859c-1.578,0 -2.858,1.28 -2.858,2.859" style="fill:#808080;fill-rule:nonzero;"/><path d="M36.214,29.158c0,1.349 1.094,2.442 2.442,2.442c1.349,0 2.442,-1.093 2.442,-2.442c0,-1.348 -1.093,-2.442 -2.442,-2.442c-1.348,0 -2.442,1.094 -2.442,2.442" style="fill:#484848;fill-rule:nonzero;"/><path d="M40.716,27.842c0.608,2.578 -1.82,3.376 -4.108,2.433c0.083,-2.309 1.933,-2.537 4.108,-2.433Z"/><circle cx="39.861" cy="28.866" r="0.293" style="fill:#fff;"/><path d="M17.478,20.133c-0.653,-0.503 0.114,-1.38 1.917,-2.532l0,2.532l-1.917,0Z" style="fill:#282828;"/><path d="M30.363,9.786c0.037,-0.001 0.075,-0.001 0.113,-0.001c8.293,0 15.139,6.243 16.092,14.282c-1.14,-6.133 -7.89,-2.635 -16.036,-2.635c-0.056,0 -0.113,0 -0.169,0c-0.057,0 -0.113,0 -0.17,0c-8.146,0 -14.896,-3.498 -16.035,2.635c0.952,-8.039 7.798,-14.282 16.091,-14.282c0.038,0 0.076,0 0.114,0.001Z" style="fill:#fff;"/><path d="M18.321,20.769c0.004,-1.023 0.59,-1.963 1.688,-2.83c-0.475,1.205 0.132,2.327 1.688,3.376l-3.376,-0.546Z" style="fill:#282828;"/><path d="M26.008,11.865c-0.476,-1.158 -0.192,-2.945 1.427,-4.16c-0.13,1.653 0.768,2.797 3.553,3.024l-4.98,1.136Z" style="fill:#fff;"/><path d="M27.962,11.888c0.133,-1.635 1.18,-3.067 3.029,-4.318c-0.903,1.869 -0.081,3.738 2.258,5.607l-5.287,-1.289Z" style="fill:#fff;"/><path d="M27.268,23.087c0.004,-1.837 0.59,-3.524 1.688,-5.08c-0.475,2.163 0.131,4.177 1.688,6.06l-3.376,-0.98Z" style="fill:#282828;"/><path d="M40.266,21.343c-0.004,-1.231 -0.59,-2.362 -1.688,-3.404c0.475,1.449 -0.132,2.799 -1.688,4.061l3.376,-0.657Z" style="fill:#282828;"/><path d="M25.073,22.119c-0.003,-1.023 -0.59,-1.963 -1.688,-2.83c0.476,1.205 -0.131,2.327 -1.688,3.376l3.376,-0.546Z" style="fill:#282828;"/><path d="M42.308,21.983c0.16,-1.129 -0.385,-2.268 -1.549,-3.414c0.37,1.411 -0.531,2.544 -2.548,3.431l4.097,-0.017Z" style="fill:#282828;"/><path d="M27.268,22.262c-0.005,-1.151 -0.767,-2.209 -2.195,-3.184c0.618,1.356 -0.17,2.618 -2.194,3.798l4.389,-0.614Z" style="fill:#282828;"/><path d="M46.005,22.834c-0.004,-1.023 -2.278,-3.353 -3.376,-4.22c0.781,1.205 1.405,3.846 -0.507,4.895l3.883,-0.675Z" style="fill:#282828;"/><circle cx="30.475" cy="34.037" r="3.766" style="fill:#fff;"/><path d="M25.673,10.299c0.031,-1.275 0.817,-2.257 2.289,-3.532c-0.413,1.079 -0.425,2.157 0.603,3.236l2.04,-3.056l0.383,2.741" style="fill:none;stroke:#282828;stroke-width:1.38px;"/><path d="M33.178,34.276c0,-0.732 -0.704,0.912 -1.424,1.002c-0.492,0.061 1.089,-1.211 -1.279,-1.241c-2.233,-0.028 -0.808,1.165 -1.28,1.158c-0.729,-0.012 -1.422,-1.666 -1.422,-0.919c0,1.231 1.209,2.746 2.702,2.746c1.493,0 2.703,-1.515 2.703,-2.746" style="fill:#7d6147;fill-rule:nonzero;"/></g><text x="57.073px" y="20.771px" style="font-family:'AlfaSlabOne-Regular', 'Alfa Slab One';font-size:18px;">a Maze</text><text x="98.464px" y="37.237px" style="font-family:'AlfaSlabOne-Regular', 'Alfa Slab One';font-size:18px;">Maps</text><text x="81.39px" y="37.237px" style="font-family:'AlfaSlabOne-Regular', 'Alfa Slab One';font-size:18px;">&amp;</text></svg>